<svg xmlns="http://www.w3.org/2000/svg" viewBox="0 0 100 110" width="100" height="110">
  <!-- Shadow (gray offset) -->
  <g transform="translate(3, 3)">
    <path d="M8 8
             Q8 2 14 2
             L76 2
             Q82 2 82 8
             L82 56
             Q82 62 76 62
             L24 62
             L8 80
             L8 62
             Q2 62 2 56
             L2 8
             Q2 2 8 2"
          fill="none"
          stroke="#808080"
          stroke-width="5"
          stroke-linejoin="round"
          stroke-linecap="round"/>
    <path d="M18 20 L30 48 L44 26 L58 48 L70 20"
          fill="none"
          stroke="#808080"
          stroke-width="5"
          stroke-linecap="round"
          stroke-linejoin="round"/>
  </g>

  <!-- Green main layer -->
  <g>
    <path d="M8 8
             Q8 2 14 2
             L76 2
             Q82 2 82 8
             L82 56
             Q82 62 76 62
             L24 62
             L8 80
             L8 62
             Q2 62 2 56
             L2 8
             Q2 2 8 2"
          fill="none"
          stroke="#20BF6D"
          stroke-width="5"
          stroke-linejoin="round"
          stroke-linecap="round"/>
    <path d="M18 20 L30 48 L44 26 L58 48 L70 20"
          fill="none"
          stroke="#20BF6D"
          stroke-width="5"
          stroke-linecap="round"
          stroke-linejoin="round"/>
  </g>
</svg>
